<svg id="Layer_1" data-name="Layer 1" xmlns="http://www.w3.org/2000/svg" viewBox="0 0 142.65 198.52"><defs><style>.cls-1{fill:#878786;}</style></defs><title>delete</title><path class="cls-1" d="M170.53,145.23V276.68A23.34,23.34,0,0,0,193.88,300h73.86a23.34,23.34,0,0,0,23.34-23.35V145.23Zm35.72,130.21H195.36V181.92h10.89Zm30,0H225.36V181.92h10.89Zm30,0H255.36V181.92h10.89Z" transform="translate(-159.48 -101.51)"/><polygon class="cls-1" points="71.33 26.11 71.74 26.11 71.33 26.12 71.33 26.11"/><polygon class="cls-1" points="72.14 26.11 72.14 26.12 71.74 26.11 72.14 26.11"/><polygon class="cls-1" points="71.74 26.11 71.33 26.12 71.33 26.11 71.74 26.11"/><path class="cls-1" d="M264.18,116.5l-15-15H213.24l-15,15H162.83a3.35,3.35,0,0,0-3.35,3.35v15.56a3.35,3.35,0,0,0,3.35,3.35H298.78a3.35,3.35,0,0,0,3.35-3.35V119.85a3.35,3.35,0,0,0-3.35-3.35Zm-32.56,11.13h0Z" transform="translate(-159.48 -101.51)"/><polygon class="cls-1" points="72.14 26.11 72.14 26.12 71.74 26.11 72.14 26.11"/></svg>